<svg width="48" height="23" xmlns="http://www.w3.org/2000/svg"><g fill="none" fill-rule="evenodd"><path d="M36.4 21.184c5.343 0 9.674-4.336 9.674-9.684 0-5.348-4.331-9.684-9.674-9.684-5.343 0-9.674 4.336-9.674 9.684 0 5.348 4.331 9.684 9.674 9.684zm0 1c-5.895 0-10.674-4.784-10.674-10.684C25.726 5.6 30.505.816 36.4.816S47.074 5.6 47.074 11.5c0 5.9-4.779 10.684-10.674 10.684zm0-.184c5.794 0 10.49-4.701 10.49-10.5S42.194 1 36.4 1c-5.794 0-10.49 4.701-10.49 10.5S30.606 22 36.4 22zm0 1c-6.346 0-11.49-5.149-11.49-11.5S30.054 0 36.4 0s11.49 5.149 11.49 11.5S42.746 23 36.4 23z" fill="#FFF" fill-rule="nonzero"/><path d="M36.4 21.184c5.343 0 9.674-4.336 9.674-9.684 0-5.348-4.331-9.684-9.674-9.684-5.343 0-9.674 4.336-9.674 9.684 0 5.348 4.331 9.684 9.674 9.684z" fill="#2B85B3"/><path d="M36.4 18.42a6.916 6.916 0 006.913-6.92A6.916 6.916 0 0036.4 4.58a6.916 6.916 0 00-6.913 6.92 6.916 6.916 0 006.913 6.92z" fill="#FFF"/><path d="M36.4 18.42a6.916 6.916 0 006.913-6.92A6.916 6.916 0 0036.4 4.58a6.916 6.916 0 00-6.913 6.92 6.916 6.916 0 006.913 6.92z" fill="#FFF"/><path d="M11.49 21.184c5.343 0 9.674-4.336 9.674-9.684 0-5.348-4.331-9.684-9.674-9.684-5.343 0-9.674 4.336-9.674 9.684 0 5.348 4.331 9.684 9.674 9.684zm0 1C5.595 22.184.816 17.4.816 11.5.816 5.6 5.595.816 11.49.816S22.164 5.6 22.164 11.5c0 5.9-4.779 10.684-10.674 10.684zm0-.184c5.794 0 10.49-4.701 10.49-10.5S17.284 1 11.49 1C5.696 1 1 5.701 1 11.5S5.696 22 11.49 22zm0 1C5.144 23 0 17.851 0 11.5S5.144 0 11.49 0s11.49 5.149 11.49 11.5S17.836 23 11.49 23z" fill="#FFF" fill-rule="nonzero"/><path d="M11.49 21.184c5.343 0 9.674-4.336 9.674-9.684 0-5.348-4.331-9.684-9.674-9.684-5.343 0-9.674 4.336-9.674 9.684 0 5.348 4.331 9.684 9.674 9.684z" fill="#2B85B3"/><path d="M11.49 18.42a6.916 6.916 0 006.913-6.92 6.916 6.916 0 00-6.913-6.92 6.916 6.916 0 00-6.913 6.92 6.916 6.916 0 006.913 6.92z" fill="#FFF"/><path d="M36.41 17.847H11.5a6.335 6.335 0 01-6.333-6.337c0-3.5 2.835-6.337 6.333-6.337h24.91a6.335 6.335 0 016.332 6.337c0 3.5-2.835 6.337-6.332 6.337z" fill="#FFF" fill-rule="nonzero"/><path d="M36.41 16.031a4.519 4.519 0 004.516-4.521 4.519 4.519 0 00-4.516-4.521H11.5a4.519 4.519 0 00-4.517 4.52 4.519 4.519 0 004.517 4.522h24.91z" fill="#2B85B3"/><path d="M11.5 9.753h24.91a1.756 1.756 0 010 3.514H11.5a1.756 1.756 0 010-3.514z" fill="#FFF"/></g></svg>