<svg width="580" height="260" xmlns="http://www.w3.org/2000/svg">
 <g>
  <g stroke="null" id="svg_8">
   <path stroke="null" id="svg_1" fill-rule="nonzero" fill="#1f669c" d="m452.25704,256.45473c-69.38024,0 -125.62244,-56.30204 -125.62244,-125.75542c0,-69.45337 56.24885,-125.75542 125.62909,-125.75542c69.38023,0 125.62244,56.30205 125.62244,125.75542c0,69.45338 -56.24885,125.75542 -125.62244,125.75542l-0.00665,0zm0.00665,-35.89687c49.58011,0 89.77211,-40.22525 89.77211,-89.85854c0,-49.62665 -40.192,-89.85854 -89.76546,-89.85854c-49.58011,0 -89.77211,40.22524 -89.77211,89.85854c0,49.62665 40.192,89.85854 89.77211,89.85854l-0.00665,0z"/>
   <path stroke="null" id="svg_2" fill="#000" d="m452.25704,220.55786c49.58011,0 89.77211,-40.22525 89.77211,-89.85854c0,-49.62665 -40.192,-89.85854 -89.76546,-89.85854c-49.58011,0 -89.77211,40.22524 -89.77211,89.85854c0,49.62665 40.192,89.85854 89.77211,89.85854l-0.00665,0z"/>
   <path stroke="null" id="svg_3" fill="#FFF" d="m452.25704,220.55786c49.58011,0 89.77211,-40.22525 89.77211,-89.85854c0,-49.62665 -40.192,-89.85854 -89.76546,-89.85854c-49.58011,0 -89.77211,40.22524 -89.77211,89.85854c0,49.62665 40.192,89.85854 89.77211,89.85854l-0.00665,0zm-323.45751,0c49.57346,0 89.75881,-40.22525 89.75881,-89.85854c0,-49.62665 -40.18535,-89.85854 -89.75881,-89.85854c-49.58676,0 -89.7721,40.22524 -89.7721,89.85854c0,49.62665 40.18535,89.85854 89.76545,89.85854l0.00665,0z"/>
   <path stroke="null" id="svg_4" fill-rule="nonzero" fill="#1f669c" d="m128.79288,256.45473c-69.38688,0 -125.62909,-56.30204 -125.62909,-125.75542c0,-69.45337 56.24221,-125.75542 125.62244,-125.75542c69.38023,0 125.62244,56.30205 125.62244,125.75542c0,69.45338 -56.24221,125.75542 -125.62244,125.75542l0.00664,0l0.00001,0zm-0.00664,-35.89687c49.57346,0 89.75881,-40.22525 89.75881,-89.85854c0,-49.62665 -40.18535,-89.85854 -89.75881,-89.85854c-49.58676,0 -89.77211,40.22524 -89.77211,89.85854c0,49.62665 40.18535,89.85854 89.76546,89.85854l0.00665,0z"/>
   <path stroke="null" id="svg_5" fill="#1f669c" d="m452.39001,189.53455l-323.47745,0c-32.38631,0 -58.64242,-26.28271 -58.64242,-58.70891c0,-32.4262 26.25611,-58.70891 58.64242,-58.70891l323.47745,0c32.39296,0 58.64907,26.28271 58.64907,58.70891c0,32.4262 -26.26276,58.70891 -58.64907,58.70891z"/>
   <path stroke="null" id="svg_6" fill="#FFF" d="m128.91256,108.00696l323.47745,0a22.80539,22.80539 0 0 1 22.79209,22.81868a22.80539,22.80539 0 0 1 -22.79209,22.81868l-323.47745,0a22.80539,22.80539 0 0 1 -22.79209,-22.81868a22.80539,22.80539 0 0 1 22.79209,-22.81868z"/>
  </g>
 </g>
</svg>
