<svg width="9781" height="4034" xmlns="http://www.w3.org/2000/svg"><defs><path d="m35.862,19.126l-32.515,0l0,14.026l32.515,0l0,15.726l24.438,-22.738l-24.44,-22.74l0.002,15.726z" id="a"/></defs>
<g>
  <path stroke="null" id="svg_2" fill-rule="nonzero" fill="#1f669c" d="m604.83142,349.35981c-90.23064,0 -163.37496,-73.22214 -163.37496,-163.5479c0,-90.32576 73.15297,-163.5479 163.38361,-163.5479c90.23064,0 163.37496,73.22214 163.37496,163.5479c0,90.32576 -73.15297,163.5479 -163.37496,163.5479l-0.00865,0zm0.00865,-46.68474c64.48011,0 116.75076,-52.31388 116.75076,-116.86317c0,-64.54063 -52.27065,-116.86317 -116.74211,-116.86317c-64.48011,0 -116.75076,52.31388 -116.75076,116.86317c0,64.54063 52.27065,116.86317 116.75076,116.86317l-0.00865,0z"/>
  <path stroke="null" id="svg_3" fill="#000" d="m604.83142,302.67507c64.48011,0 116.75076,-52.31388 116.75076,-116.86317c0,-64.54063 -52.27065,-116.86317 -116.74211,-116.86317c-64.48011,0 -116.75076,52.31388 -116.75076,116.86317c0,64.54063 52.27065,116.86317 116.75076,116.86317l-0.00865,0z"/>
  <path stroke="null" id="svg_4" fill="#FFF" d="m604.83142,302.67507c64.48011,0 116.75076,-52.31388 116.75076,-116.86317c0,-64.54063 -52.27065,-116.86317 -116.74211,-116.86317c-64.48011,0 -116.75076,52.31388 -116.75076,116.86317c0,64.54063 52.27065,116.86317 116.75076,116.86317l-0.00865,0zm-420.66416,0c64.47146,0 116.73346,-52.31388 116.73346,-116.86317c0,-64.54063 -52.262,-116.86317 -116.73346,-116.86317c-64.48875,0 -116.75076,52.31388 -116.75076,116.86317c0,64.54063 52.262,116.86317 116.74211,116.86317l0.00865,0z"/>
  <path stroke="null" id="svg_5" fill-rule="nonzero" fill="#1f669c" d="m184.15861,349.35981c-90.23929,0 -163.38361,-73.22214 -163.38361,-163.5479c0,-90.32576 73.14432,-163.5479 163.37496,-163.5479c90.23064,0 163.37496,73.22214 163.37496,163.5479c0,90.32576 -73.14432,163.5479 -163.37496,163.5479l0.00865,0zm-0.00865,-46.68474c64.47146,0 116.73346,-52.31388 116.73346,-116.86317c0,-64.54063 -52.262,-116.86317 -116.73346,-116.86317c-64.48875,0 -116.75076,52.31388 -116.75076,116.86317c0,64.54063 52.262,116.86317 116.74211,116.86317l0.00865,0z"/>
  <path stroke="null" id="svg_6" fill="#1f669c" d="m605.00436,262.32853l-420.6901,0c-42.11916,0 -76.26586,-34.18129 -76.26586,-76.35233c0,-42.17104 34.1467,-76.35233 76.26586,-76.35233l420.6901,0c42.12781,0 76.27451,34.18129 76.27451,76.35233c0,42.17104 -34.15535,76.35233 -76.27451,76.35233z"/>
  <path stroke="null" id="svg_7" fill="#FFF" d="m184.31426,156.29995l420.6901,0a29.65895,29.65895 0 0 1 29.64165,29.67624a29.65895,29.65895 0 0 1 -29.64165,29.67624l-420.6901,0a29.65895,29.65895 0 0 1 -29.64165,-29.67624a29.65895,29.65895 0 0 1 29.64165,-29.67624z"/>
 </g>
</svg>
