<svg width="512" height="210" xmlns="http://www.w3.org/2000/svg" xmlns:xlink="http://www.w3.org/1999/xlink"><defs><path id="a" d="M35.862 19.126H3.347v14.026h32.515v15.726L60.3 26.14 35.86 3.4z"/></defs><g fill="none" fill-rule="evenodd"><path d="M121.616 119.57a64.31 64.31 0 01-7.095 8.91 49.85 49.85 0 01-15.462 25.467 49.586 49.586 0 01-32.864 12.399 49.639 49.639 0 01-32.886-12.412 49.755 49.755 0 01-15.46-25.481 64.31 64.31 0 01-7.07-8.883C3.63 108.748-.034 96.074.054 82.762L.16 65.697c.099-27.418 22.356-49.599 49.78-49.599 5.576 0 11.063.929 16.258 2.723a49.777 49.777 0 0116.257-2.723c27.425 0 49.682 22.18 49.781 49.599l.106 17.065c.087 13.312-3.576 25.986-10.726 36.808zm28.233 28.606c-36.428 0-65.959-29.531-65.959-65.96 0-36.428 29.53-65.959 65.96-65.959 36.427 0 65.958 29.531 65.958 65.96 0 36.428-29.53 65.959-65.959 65.959zm99.855-131.919c27.406 0 49.622 22.217 49.622 49.622v16.31c0 36.433-29.608 65.933-66.092 65.933-36.483 0-66.092-29.5-66.092-65.932V65.88c0-27.406 22.217-49.623 49.622-49.623 5.654 0 11.215.958 16.47 2.807a49.615 49.615 0 0116.47-2.807zm49.463 131.812c-27.408 0-49.622-22.218-49.622-49.633l.004-16.642c.678-36.01 29.399-64.848 65.143-65.525a66.91 66.91 0 011.266-.012h11.845c27.406 0 49.622 22.217 49.622 49.622a49.47 49.47 0 01-11.534 31.809 49.701 49.701 0 01-18.875 13.953c-5.793 21.075-25.098 36.428-47.85 36.428zM377.957 0c27.405 0 49.622 22.217 49.622 49.622V98.47c0 27.426-22.207 49.652-49.622 49.652-27.406 0-49.623-22.216-49.623-49.622V49.622C328.334 22.217 350.551 0 377.957 0zm73.158 148.282h-21.73c-27.494 0-49.781-22.29-49.781-49.785 0-3.753.42-7.475 1.248-11.103a49.864 49.864 0 01-.825-17.584c3.618-30.603 29.596-53.712 60.462-53.712h21.73c27.494 0 49.78 22.29 49.78 49.785 0 3.753-.42 7.475-1.248 11.102a49.864 49.864 0 01.826 17.585c-3.619 30.603-29.597 53.712-60.462 53.712z" fill="#4393BB" fill-rule="nonzero"/><path d="M118.104 82.853c.07 10.485-2.772 20.399-8.367 28.868a50.206 50.206 0 01-8.334 9.667c-2.393 17.373-17.218 30.718-35.207 30.72-17.998-.002-32.87-13.38-35.218-30.733a50.205 50.205 0 01-8.319-9.654c-5.596-8.469-8.436-18.383-8.367-28.868l.106-17.088c.062-19.58 15.955-35.429 35.543-35.429a35.47 35.47 0 0116.257 3.93 35.47 35.47 0 0116.257-3.93c19.588 0 35.48 15.848 35.543 35.43l.106 17.087zm31.745 51.084c-28.564 0-51.72-23.156-51.72-51.72 0-28.565 23.156-51.721 51.72-51.721 28.565 0 51.72 23.156 51.72 51.72 0 28.565-23.155 51.721-51.72 51.721zm99.855-103.441c19.542 0 35.384 15.842 35.384 35.383v16.31c0 28.572-23.236 51.695-51.854 51.695-28.617 0-51.853-23.123-51.853-51.694V65.88c0-19.542 15.842-35.384 35.384-35.384a35.313 35.313 0 0116.47 4.06 35.311 35.311 0 0116.47-4.06zm49.463 103.335c-19.543 0-35.384-15.843-35.384-35.391l.005-16.51c.532-28.257 23.116-50.894 51.174-51.425.332-.006.664-.01.996-.01h11.845c19.542 0 35.384 15.843 35.384 35.384 0 17.258-12.355 31.63-28.703 34.754-1.129 18.524-16.51 33.198-35.317 33.198zm78.79-119.593c19.541 0 35.383 15.842 35.383 35.384V98.47c0 19.565-15.834 35.414-35.383 35.414-19.542 0-35.384-15.842-35.384-35.384V49.622c0-19.542 15.842-35.384 35.384-35.384zm119.805 73.85a35.6 35.6 0 01-.314 4.719c-2.728 23.461-22.634 41.236-46.333 41.236h-21.73c-19.63 0-35.543-15.915-35.543-35.546 0-3.817.607-7.556 1.772-11.103a35.53 35.53 0 01-1.772-11.101c0-1.58.105-3.157.314-4.72 2.728-23.461 22.633-41.237 46.333-41.237h21.73c19.63 0 35.543 15.916 35.543 35.547 0 3.816-.607 7.556-1.772 11.102a35.53 35.53 0 011.772 11.102z" fill="#FFF" fill-rule="nonzero"/><path d="M481.64 76.986a22.265 22.265 0 012.946 11.101 22.31 22.31 0 01-.213 3.082c-1.9 16.838-16.17 29.698-33.258 29.698h-21.73c-12.354 0-22.367-10.017-22.367-22.37 0-4.04 1.071-7.831 2.945-11.103a22.265 22.265 0 01-2.945-11.101c0-1.034.071-2.064.212-3.082 1.9-16.839 16.17-29.699 33.259-29.699h21.73c12.354 0 22.367 10.017 22.367 22.37 0 4.041-1.071 7.832-2.945 11.104z" fill="#4393BB" fill-rule="nonzero"/><path d="M454.09 88.087a8.129 8.129 0 1116.156 1.285c-.992 9.694-9.179 17.257-19.131 17.257h-21.73a8.13 8.13 0 01-8.129-8.132 8.13 8.13 0 018.13-8.132h22.42c1.258 0 2.28-1.02 2.284-2.278zm-16.576-11.794a8.129 8.129 0 11-16.157-1.285c.993-9.695 9.18-17.257 19.132-17.257h21.73a8.13 8.13 0 018.128 8.132 8.13 8.13 0 01-8.128 8.132h-22.42a2.285 2.285 0 00-2.285 2.278z" fill="#FFF"/><path d="M355.749 49.622c0-12.265 9.943-22.208 22.208-22.208 12.265 0 22.207 9.943 22.207 22.208V98.47c0 12.295-9.942 22.238-22.207 22.238s-22.208-9.943-22.208-22.208V49.622z" fill="#4393BB" fill-rule="nonzero"/><path d="M369.828 49.622a8.129 8.129 0 1116.257 0V98.5a8.129 8.129 0 11-16.257-.053V49.622z" fill="#FFF"/><path d="M321.375 98.448c0 12.265-9.943 22.207-22.208 22.207-12.265 0-22.208-9.943-22.208-22.212l.005-16.388c.397-21.079 17.298-37.98 38.247-38.376.249-.005.498-.007.747-.007h11.845c12.265 0 22.208 9.942 22.208 22.207s-9.943 22.208-22.208 22.208h-6.427l-.001 10.361z" fill="#4393BB" fill-rule="nonzero"/><path d="M307.296 98.447l.001-16.257a8.182 8.182 0 018.183-8.182h12.323a8.129 8.129 0 100-16.257h-11.845c-.16 0-.32.001-.48.004-13.383.254-24.188 11.027-24.44 24.408v16.284a8.129 8.129 0 0016.258 0z" fill="#FFF"/><path d="M249.704 43.672c12.265 0 22.208 9.942 22.208 22.207v16.31c0 21.294-17.337 38.52-38.678 38.52-21.34 0-38.677-17.226-38.677-38.52V65.88c0-12.265 9.943-22.207 22.208-22.207 6.532 0 12.406 2.82 16.47 7.31a22.148 22.148 0 0116.47-7.31z" fill="#4393BB" fill-rule="nonzero"/><path d="M241.576 82.19h-.006a8.341 8.341 0 01-16.67 0l-.007-16.31a8.129 8.129 0 10-16.257 0v16.31c0 13.497 11.013 24.439 24.598 24.439 13.586 0 24.599-10.942 24.599-24.44V65.88a8.129 8.129 0 00-16.257 0v16.31z" fill="#FFF"/><path d="M149.85 120.761c-21.289 0-38.546-17.257-38.546-38.545 0-21.287 17.257-38.544 38.545-38.544s38.545 17.257 38.545 38.544c0 21.288-17.257 38.545-38.545 38.545z" fill="#4393BB" fill-rule="nonzero"/><path d="M149.85 106.523c-13.425 0-24.307-10.883-24.307-24.307s10.882-24.306 24.306-24.306c13.424 0 24.306 10.882 24.306 24.306 0 13.424-10.882 24.307-24.306 24.307zm.026-16.204a8.129 8.129 0 100-16.258 8.129 8.129 0 000 16.258z" fill="#FFF"/><path d="M82.455 43.512c12.335 0 22.337 9.985 22.367 22.313l.106 17.113c.053 7.883-2.037 15.242-6.184 21.52-2.704 4.091-6.145 7.533-10.18 10.299v1.686c0 12.473-10.012 22.487-22.367 22.488-12.353 0-22.366-10.014-22.366-22.367v-1.807c-4.035-2.766-7.475-6.208-10.179-10.3-4.148-6.277-6.237-13.636-6.184-21.52l.106-17.112c.03-12.328 10.032-22.313 22.367-22.313 6.404 0 12.18 2.692 16.257 7.005a22.304 22.304 0 0116.257-7.005z" fill="#4393BB" fill-rule="nonzero"/><path d="M58.07 116.564a8.129 8.129 0 0016.256 0v-10.387a29.353 29.353 0 004.202-1.926c3.337-1.887 6.195-4.403 8.336-7.642 2.533-3.834 3.861-8.412 3.826-13.579l-.106-17.15a8.129 8.129 0 10-16.258 0V81.5a15.96 15.96 0 01-.047 1.455 8.129 8.129 0 11-16.162 0 16.127 16.127 0 01-.047-1.456V65.88a8.129 8.129 0 10-16.258 0l-.106 17.151c-.035 5.167 1.293 9.745 3.826 13.579 2.14 3.24 4.999 5.755 8.336 7.642 1.32.746 2.757 1.39 4.202 1.926v10.387z" fill="#FFF"/><g fill-rule="nonzero"><path d="M381.463 171.818v-12.38c0-2.923 3.486-4.442 5.627-2.45l24.44 22.74a3.347 3.347 0 010 4.9l-24.44 22.74c-2.14 1.991-5.627.473-5.627-2.451v-12.38h-29.167a3.347 3.347 0 01-3.348-3.346v-14.026a3.347 3.347 0 013.348-3.347h29.167z"/><g stroke-linecap="square" stroke-linejoin="round" transform="translate(348.948 156.039)"><use fill="#4393BB" fill-rule="evenodd" xlink:href="#a"/><path stroke="#FFF" stroke-width="1.806" d="M34.959 18.223H2.444v15.832h32.515v16.897l1.518-1.412 24.44-22.74.71-.66-.71-.662-24.44-22.739-1.518-1.413v16.897z"/></g></g><path d="M228.363 168.205a27.854 27.854 0 0124.13-13.92 27.854 27.854 0 0124.13 13.92h18.842a27.854 27.854 0 0124.13-13.92c15.39 0 27.866 12.476 27.866 27.866 0 15.39-12.476 27.866-27.866 27.866a27.854 27.854 0 01-24.1-13.866h-18.902a27.854 27.854 0 01-24.1 13.866 27.854 27.854 0 01-24.099-13.866h-19.54a27.854 27.854 0 01-24.1 13.866 27.854 27.854 0 01-24.099-13.866h-18.902a27.854 27.854 0 01-24.1 13.866c-15.39 0-27.866-12.476-27.866-27.866 0-15.39 12.476-27.866 27.866-27.866a27.854 27.854 0 0124.13 13.92h18.841a27.854 27.854 0 0124.13-13.92 27.854 27.854 0 0124.13 13.92h19.48z" fill="#FFF" fill-rule="nonzero"/><path d="M251.883 194.344H184.78c-6.72 0-12.166-5.447-12.166-12.166 0-6.72 5.447-12.167 12.166-12.167h67.102c6.719 0 12.166 5.448 12.166 12.167 0 6.72-5.447 12.166-12.166 12.166z" fill="#026090"/><path d="M184.781 177.45h67.102a4.728 4.728 0 110 9.456H184.78a4.728 4.728 0 010-9.457z" fill="#FFF"/><g><path d="M184.755 208.21c-14.393 0-26.06-11.666-26.06-26.059 0-14.392 11.667-26.06 26.06-26.06 14.392 0 26.06 11.668 26.06 26.06 0 14.393-11.668 26.06-26.06 26.06zm0-7.437c10.284 0 18.621-8.337 18.621-18.622 0-10.284-8.337-18.621-18.621-18.621-10.285 0-18.622 8.337-18.622 18.621 0 10.285 8.337 18.622 18.622 18.622z" fill="#026090" fill-rule="nonzero"/><path d="M184.755 200.773c10.284 0 18.621-8.337 18.621-18.622 0-10.284-8.337-18.621-18.621-18.621-10.285 0-18.622 8.337-18.622 18.621 0 10.285 8.337 18.622 18.622 18.622z" fill="#FFF"/><path d="M184.755 200.773c10.284 0 18.621-8.337 18.621-18.622 0-10.284-8.337-18.621-18.621-18.621-10.285 0-18.622 8.337-18.622 18.621 0 10.285 8.337 18.622 18.622 18.622zm-67.102 0c10.285 0 18.622-8.337 18.622-18.622 0-10.284-8.337-18.621-18.622-18.621-10.284 0-18.621 8.337-18.621 18.621 0 10.285 8.337 18.622 18.621 18.622z" fill="#FFF"/><path d="M117.653 208.21c-14.392 0-26.06-11.666-26.06-26.059 0-14.392 11.668-26.06 26.06-26.06 14.393 0 26.06 11.668 26.06 26.06 0 14.393-11.667 26.06-26.06 26.06zm0-7.437c10.285 0 18.622-8.337 18.622-18.622 0-10.284-8.337-18.621-18.622-18.621-10.284 0-18.621 8.337-18.621 18.621 0 10.285 8.337 18.622 18.621 18.622z" fill="#026090" fill-rule="nonzero"/><path d="M184.781 194.344H117.68c-6.72 0-12.167-5.447-12.167-12.166 0-6.72 5.447-12.167 12.167-12.167h67.101c6.72 0 12.167 5.448 12.167 12.167 0 6.72-5.448 12.166-12.167 12.166z" fill="#026090"/><path d="M117.68 177.45h67.101a4.728 4.728 0 010 9.456H117.68a4.728 4.728 0 110-9.457z" fill="#FFF"/></g><g><path d="M319.595 208.21c-14.392 0-26.06-11.666-26.06-26.059 0-14.392 11.668-26.06 26.06-26.06s26.06 11.668 26.06 26.06c0 14.393-11.668 26.06-26.06 26.06zm0-7.437c10.284 0 18.621-8.337 18.621-18.622 0-10.284-8.337-18.621-18.621-18.621-10.285 0-18.622 8.337-18.622 18.621 0 10.285 8.337 18.622 18.622 18.622z" fill="#026090" fill-rule="nonzero"/><path d="M319.595 200.773c10.284 0 18.621-8.337 18.621-18.622 0-10.284-8.337-18.621-18.621-18.621-10.285 0-18.622 8.337-18.622 18.621 0 10.285 8.337 18.622 18.622 18.622z" fill="#FFF"/><path d="M319.595 200.773c10.284 0 18.621-8.337 18.621-18.622 0-10.284-8.337-18.621-18.621-18.621-10.285 0-18.622 8.337-18.622 18.621 0 10.285 8.337 18.622 18.622 18.622zm-67.101 0c10.284 0 18.621-8.337 18.621-18.622 0-10.284-8.337-18.621-18.621-18.621-10.285 0-18.622 8.337-18.622 18.621 0 10.285 8.337 18.622 18.622 18.622z" fill="#FFF"/><path d="M252.494 208.21c-14.393 0-26.06-11.666-26.06-26.059 0-14.392 11.667-26.06 26.06-26.06 14.392 0 26.06 11.668 26.06 26.06 0 14.393-11.668 26.06-26.06 26.06zm0-7.437c10.284 0 18.621-8.337 18.621-18.622 0-10.284-8.337-18.621-18.621-18.621-10.285 0-18.622 8.337-18.622 18.621 0 10.285 8.337 18.622 18.622 18.622z" fill="#026090" fill-rule="nonzero"/><path d="M319.621 194.344h-67.1c-6.72 0-12.167-5.447-12.167-12.166 0-6.72 5.447-12.167 12.166-12.167h67.101c6.72 0 12.167 5.448 12.167 12.167 0 6.72-5.447 12.166-12.167 12.166z" fill="#026090"/><path d="M252.52 177.45h67.101a4.728 4.728 0 010 9.456h-67.1a4.728 4.728 0 110-9.457z" fill="#FFF"/></g><path d="M451.426 192.834a20.687 20.687 0 01-17.757 10.064c-11.433 0-20.7-9.277-20.7-20.72s9.267-20.72 20.7-20.72a20.687 20.687 0 0117.78 10.102h13.091a20.687 20.687 0 0117.78-10.102c11.434 0 20.701 9.277 20.701 20.72s-9.267 20.72-20.7 20.72a20.687 20.687 0 01-17.757-10.064h-13.138z" fill="#FFF" fill-rule="nonzero"/><g><path d="M482.32 201.092c-10.435 0-18.894-8.468-18.894-18.914 0-10.446 8.46-18.914 18.895-18.914 10.435 0 18.894 8.468 18.894 18.914 0 10.446-8.46 18.914-18.894 18.914zm0-5.399c7.457 0 13.502-6.05 13.502-13.515 0-7.464-6.045-13.515-13.501-13.515-7.457 0-13.502 6.05-13.502 13.515 0 7.464 6.045 13.515 13.502 13.515z" fill="#026090" fill-rule="nonzero"/><path d="M482.32 195.693c7.457 0 13.502-6.05 13.502-13.515 0-7.464-6.045-13.515-13.501-13.515-7.457 0-13.502 6.05-13.502 13.515 0 7.464 6.045 13.515 13.502 13.515z" fill="#FFF"/><path d="M482.32 195.693c7.457 0 13.502-6.05 13.502-13.515 0-7.464-6.045-13.515-13.501-13.515-7.457 0-13.502 6.05-13.502 13.515 0 7.464 6.045 13.515 13.502 13.515zm-48.65 0c7.456 0 13.5-6.05 13.5-13.515 0-7.464-6.044-13.515-13.5-13.515-7.458 0-13.502 6.05-13.502 13.515 0 7.464 6.044 13.515 13.501 13.515z" fill="#FFF"/><path d="M433.67 201.092c-10.436 0-18.895-8.468-18.895-18.914 0-10.446 8.459-18.914 18.894-18.914 10.435 0 18.894 8.468 18.894 18.914 0 10.446-8.459 18.914-18.894 18.914zm0-5.399c7.456 0 13.5-6.05 13.5-13.515 0-7.464-6.044-13.515-13.5-13.515-7.458 0-13.502 6.05-13.502 13.515 0 7.464 6.044 13.515 13.501 13.515z" fill="#026090" fill-rule="nonzero"/><path d="M482.34 191.027h-48.652c-4.871 0-8.82-3.953-8.82-8.83 0-4.877 3.949-8.83 8.82-8.83h48.652c4.872 0 8.821 3.953 8.821 8.83 0 4.877-3.95 8.83-8.821 8.83z" fill="#026090"/><path d="M433.688 178.765h48.652a3.43 3.43 0 013.428 3.432 3.43 3.43 0 01-3.428 3.432h-48.652a3.43 3.43 0 01-3.428-3.432 3.43 3.43 0 013.428-3.432z" fill="#FFF"/></g></g></svg>