<svg width="512" height="210" xmlns="http://www.w3.org/2000/svg" xmlns:xlink="http://www.w3.org/1999/xlink"><defs><path d="M24.896 15.55h23.08c1.601 0 2.9-1.3 2.9-2.905a2.903 2.903 0 00-2.9-2.906h-23.08c-1.602 0-2.9 1.3-2.9 2.906a2.903 2.903 0 002.9 2.905z" id="a"/><path id="b" d="M35.515 15.726H3v14.026h32.515v15.726L59.954 22.74 35.514 0z"/></defs><g fill="none" fill-rule="evenodd"><path d="M121.616 119.57a64.31 64.31 0 01-7.095 8.91 49.85 49.85 0 01-15.462 25.467 49.586 49.586 0 01-32.864 12.399 49.639 49.639 0 01-32.886-12.412 49.755 49.755 0 01-15.46-25.481 64.31 64.31 0 01-7.07-8.883C3.63 108.748-.034 96.074.054 82.762L.16 65.697c.099-27.418 22.356-49.599 49.78-49.599 5.576 0 11.063.929 16.258 2.723a49.777 49.777 0 0116.257-2.723c27.425 0 49.682 22.18 49.781 49.599l.106 17.065c.087 13.312-3.576 25.986-10.726 36.808zm28.233 28.606c-36.428 0-65.959-29.531-65.959-65.96 0-36.428 29.53-65.959 65.96-65.959 36.427 0 65.958 29.531 65.958 65.96 0 36.428-29.53 65.959-65.959 65.959zm99.855-131.919c27.406 0 49.622 22.217 49.622 49.622v16.31c0 36.433-29.608 65.933-66.092 65.933-36.483 0-66.092-29.5-66.092-65.932V65.88c0-27.406 22.217-49.623 49.622-49.623 5.654 0 11.215.958 16.47 2.807a49.615 49.615 0 0116.47-2.807zm49.463 131.812c-27.408 0-49.622-22.218-49.622-49.633l.004-16.642c.678-36.01 29.399-64.848 65.143-65.525a66.91 66.91 0 011.266-.012h11.845c27.406 0 49.622 22.217 49.622 49.622a49.47 49.47 0 01-11.534 31.809 49.701 49.701 0 01-18.875 13.953c-5.793 21.075-25.098 36.428-47.85 36.428zM377.957 0c27.405 0 49.622 22.217 49.622 49.622V98.47c0 27.426-22.207 49.652-49.622 49.652-27.406 0-49.623-22.216-49.623-49.622V49.622C328.334 22.217 350.551 0 377.957 0zm73.158 148.282h-21.73c-27.494 0-49.781-22.29-49.781-49.785 0-3.753.42-7.475 1.248-11.103a49.864 49.864 0 01-.825-17.584c3.618-30.603 29.596-53.712 60.462-53.712h21.73c27.494 0 49.78 22.29 49.78 49.785 0 3.753-.42 7.475-1.248 11.102a49.864 49.864 0 01.826 17.585c-3.619 30.603-29.597 53.712-60.462 53.712z" fill="#4393BB" fill-rule="nonzero"/><path d="M118.104 82.853c.07 10.485-2.772 20.399-8.367 28.868a50.206 50.206 0 01-8.334 9.667c-2.393 17.373-17.218 30.718-35.207 30.72-17.998-.002-32.87-13.38-35.218-30.733a50.205 50.205 0 01-8.319-9.654c-5.596-8.469-8.436-18.383-8.367-28.868l.106-17.088c.062-19.58 15.955-35.429 35.543-35.429a35.47 35.47 0 0116.257 3.93 35.47 35.47 0 0116.257-3.93c19.588 0 35.48 15.848 35.543 35.43l.106 17.087zm31.745 51.084c-28.564 0-51.72-23.156-51.72-51.72 0-28.565 23.156-51.721 51.72-51.721 28.565 0 51.72 23.156 51.72 51.72 0 28.565-23.155 51.721-51.72 51.721zm99.855-103.441c19.542 0 35.384 15.842 35.384 35.383v16.31c0 28.572-23.236 51.695-51.854 51.695-28.617 0-51.853-23.123-51.853-51.694V65.88c0-19.542 15.842-35.384 35.384-35.384a35.313 35.313 0 0116.47 4.06 35.311 35.311 0 0116.47-4.06zm49.463 103.335c-19.543 0-35.384-15.843-35.384-35.391l.005-16.51c.532-28.257 23.116-50.894 51.174-51.425.332-.006.664-.01.996-.01h11.845c19.542 0 35.384 15.843 35.384 35.384 0 17.258-12.355 31.63-28.703 34.754-1.129 18.524-16.51 33.198-35.317 33.198zm78.79-119.593c19.541 0 35.383 15.842 35.383 35.384V98.47c0 19.565-15.834 35.414-35.383 35.414-19.542 0-35.384-15.842-35.384-35.384V49.622c0-19.542 15.842-35.384 35.384-35.384zm119.805 73.85c0 1.58-.105 3.156-.314 4.719-2.728 23.461-22.634 41.236-46.333 41.236h-21.73c-19.63 0-35.543-15.915-35.543-35.546 0-3.817.607-7.556 1.772-11.103a35.53 35.53 0 01-1.772-11.101c0-1.58.105-3.157.314-4.72 2.728-23.461 22.633-41.237 46.333-41.237h21.73c19.63 0 35.543 15.916 35.543 35.547 0 3.816-.607 7.556-1.772 11.102a35.53 35.53 0 011.772 11.102z" fill="#FFF" fill-rule="nonzero"/><path d="M481.64 76.986a22.265 22.265 0 012.946 11.101c0 1.034-.071 2.064-.213 3.082-1.9 16.838-16.17 29.698-33.258 29.698h-21.73c-12.354 0-22.367-10.017-22.367-22.37 0-4.04 1.071-7.831 2.945-11.103a22.265 22.265 0 01-2.945-11.101c0-1.034.071-2.064.212-3.082 1.9-16.839 16.17-29.699 33.259-29.699h21.73c12.354 0 22.367 10.017 22.367 22.37 0 4.041-1.071 7.832-2.945 11.104z" fill="#4393BB" fill-rule="nonzero"/><path d="M454.09 88.087a8.129 8.129 0 1116.156 1.285c-.992 9.694-9.179 17.257-19.131 17.257h-21.73a8.13 8.13 0 01-8.129-8.132 8.13 8.13 0 018.13-8.132h22.42c1.258 0 2.28-1.02 2.284-2.278zm-16.576-11.794a8.129 8.129 0 11-16.157-1.285c.993-9.695 9.18-17.257 19.132-17.257h21.73a8.13 8.13 0 018.128 8.132 8.13 8.13 0 01-8.128 8.132h-22.42a2.285 2.285 0 00-2.285 2.278z" fill="#FFF"/><path d="M355.749 49.622c0-12.265 9.943-22.208 22.208-22.208 12.265 0 22.207 9.943 22.207 22.208V98.47c0 12.295-9.942 22.238-22.207 22.238s-22.208-9.943-22.208-22.208V49.622z" fill="#4393BB" fill-rule="nonzero"/><path d="M369.828 49.622a8.129 8.129 0 1116.257 0V98.5a8.129 8.129 0 11-16.257-.053V49.622z" fill="#FFF"/><path d="M321.375 98.448c0 12.265-9.943 22.207-22.208 22.207-12.265 0-22.208-9.943-22.208-22.212l.005-16.388c.397-21.079 17.298-37.98 38.247-38.376.249-.005.498-.007.747-.007h11.845c12.265 0 22.208 9.942 22.208 22.207s-9.943 22.208-22.208 22.208h-6.427l-.001 10.361z" fill="#4393BB" fill-rule="nonzero"/><path d="M307.296 98.447l.001-16.257a8.182 8.182 0 018.183-8.182h12.323a8.129 8.129 0 100-16.257h-11.845c-.16 0-.32.001-.48.004-13.383.254-24.188 11.027-24.44 24.408v16.284a8.129 8.129 0 0016.258 0z" fill="#FFF"/><g><path d="M249.704 43.672c12.265 0 22.208 9.942 22.208 22.207v16.31c0 21.294-17.337 38.52-38.678 38.52-21.34 0-38.677-17.226-38.677-38.52V65.88c0-12.265 9.943-22.207 22.208-22.207 6.532 0 12.406 2.82 16.47 7.31 4.063-4.49 9.937-7.31 16.47-7.31z" fill="#4393BB" fill-rule="nonzero"/><path d="M241.576 82.19h-.006a8.341 8.341 0 01-16.67 0l-.007-16.31a8.129 8.129 0 10-16.257 0v16.31c0 13.497 11.013 24.439 24.598 24.439 13.586 0 24.599-10.942 24.599-24.44V65.88a8.129 8.129 0 00-16.257 0v16.31z" fill="#FFF"/></g><g><path d="M149.85 120.761c-21.289 0-38.546-17.257-38.546-38.545 0-21.287 17.257-38.544 38.545-38.544s38.545 17.257 38.545 38.544c0 21.288-17.257 38.545-38.545 38.545z" fill="#4393BB" fill-rule="nonzero"/><path d="M149.85 106.523c-13.425 0-24.307-10.883-24.307-24.307s10.882-24.306 24.306-24.306c13.424 0 24.306 10.882 24.306 24.306 0 13.424-10.882 24.307-24.306 24.307zm.026-16.204a8.129 8.129 0 100-16.258 8.129 8.129 0 000 16.258z" fill="#FFF"/></g><g><path d="M82.455 43.512c12.335 0 22.337 9.985 22.367 22.313l.106 17.113c.053 7.883-2.037 15.242-6.184 21.52-2.704 4.091-6.145 7.533-10.18 10.299v1.686c0 12.473-10.012 22.487-22.367 22.488-12.353 0-22.366-10.014-22.366-22.367v-1.807c-4.035-2.766-7.475-6.208-10.179-10.3-4.148-6.277-6.237-13.636-6.184-21.52l.106-17.112c.03-12.328 10.032-22.313 22.367-22.313 6.404 0 12.18 2.692 16.257 7.005a22.304 22.304 0 0116.257-7.005z" fill="#4393BB" fill-rule="nonzero"/><path d="M58.07 116.564a8.129 8.129 0 0016.256 0v-10.387a29.353 29.353 0 004.202-1.926c3.337-1.887 6.195-4.403 8.336-7.642 2.533-3.834 3.861-8.412 3.826-13.579l-.106-17.15a8.129 8.129 0 10-16.258 0V81.5c.004.537-.01 1.017-.047 1.455a8.129 8.129 0 11-16.162 0 16.127 16.127 0 01-.047-1.456V65.88a8.129 8.129 0 10-16.258 0l-.106 17.151c-.035 5.167 1.293 9.745 3.826 13.579 2.14 3.24 4.999 5.755 8.336 7.642 1.32.746 2.757 1.39 4.202 1.926v10.387z" fill="#FFF"/></g><g><path d="M117.946 158.852h16.043c11.034 0 19.979 8.945 19.979 19.979 0 11.034-8.945 19.978-19.979 19.978h-16.043c-11.034 0-19.978-8.944-19.978-19.978s8.944-19.979 19.978-19.979zm0 12.815a7.164 7.164 0 100 14.328h16.043a7.164 7.164 0 000-14.328h-16.043z" fill="#026090"/><path d="M117.52 160.501c-10.123 0-18.329 8.207-18.329 18.33 0 10.123 8.206 18.33 18.33 18.33h16.894c10.123 0 18.33-8.207 18.33-18.33 0-10.123-8.207-18.33-18.33-18.33H117.52zm0-2.71h16.895c11.62 0 21.04 9.42 21.04 21.04s-9.42 21.039-21.04 21.039H117.52c-11.62 0-21.039-9.42-21.039-21.04 0-11.619 9.42-21.038 21.04-21.038zm0 16.205a4.835 4.835 0 000 9.67h16.895a4.835 4.835 0 100-9.67H117.52zm0-2.71h16.895a7.544 7.544 0 010 15.089H117.52a7.544 7.544 0 010-15.089z" fill="#FFF" fill-rule="nonzero"/><path d="M180.123 159.292h15.69c10.791 0 19.539 8.748 19.539 19.539 0 10.79-8.748 19.539-19.539 19.539h-15.69c-10.791 0-19.54-8.748-19.54-19.54 0-10.79 8.749-19.538 19.54-19.538zm0 12.532a7.006 7.006 0 100 14.013h15.69a7.006 7.006 0 100-14.013h-15.69z" fill="#026090"/><path d="M179.52 160.501c-10.123 0-18.329 8.207-18.329 18.33 0 10.123 8.206 18.33 18.33 18.33h16.894c10.123 0 18.33-8.207 18.33-18.33 0-10.123-8.207-18.33-18.33-18.33H179.52zm0-2.71h16.895c11.62 0 21.04 9.42 21.04 21.04s-9.42 21.039-21.04 21.039H179.52c-11.62 0-21.039-9.42-21.039-21.04 0-11.619 9.42-21.038 21.04-21.038zm0 16.205a4.835 4.835 0 000 9.67h16.895a4.835 4.835 0 100-9.67H179.52zm0-2.71h16.895a7.544 7.544 0 010 15.089H179.52a7.544 7.544 0 010-15.089z" fill="#FFF" fill-rule="nonzero"/><path d="M241.946 158.852h16.043c11.034 0 19.979 8.945 19.979 19.979 0 11.034-8.945 19.978-19.979 19.978h-16.043c-11.034 0-19.978-8.944-19.978-19.978s8.944-19.979 19.978-19.979zm0 12.815a7.164 7.164 0 100 14.328h16.043a7.164 7.164 0 000-14.328h-16.043z" fill="#026090"/><path d="M241.52 160.501c-10.123 0-18.329 8.207-18.329 18.33 0 10.123 8.206 18.33 18.33 18.33h16.894c10.123 0 18.33-8.207 18.33-18.33 0-10.123-8.207-18.33-18.33-18.33H241.52zm0-2.71h16.895c11.62 0 21.04 9.42 21.04 21.04s-9.42 21.039-21.04 21.039H241.52c-11.62 0-21.039-9.42-21.039-21.04 0-11.619 9.42-21.038 21.04-21.038zm0 16.205a4.835 4.835 0 000 9.67h16.895a4.835 4.835 0 100-9.67H241.52zm0-2.71h16.895a7.544 7.544 0 010 15.089H241.52a7.544 7.544 0 010-15.089z" fill="#FFF" fill-rule="nonzero"/><path d="M305.09 159.21h15.756c10.837 0 19.622 8.784 19.622 19.62 0 10.837-8.785 19.622-19.622 19.622H305.09c-10.836 0-19.621-8.785-19.621-19.621 0-10.837 8.785-19.622 19.621-19.622zm0 12.585a7.036 7.036 0 100 14.072h15.756a7.036 7.036 0 000-14.072H305.09z" fill="#026090"/><path d="M304.52 160.501c-10.123 0-18.329 8.207-18.329 18.33 0 10.123 8.206 18.33 18.33 18.33h16.894c10.123 0 18.33-8.207 18.33-18.33 0-10.123-8.207-18.33-18.33-18.33H304.52zm0-2.71h16.895c11.62 0 21.04 9.42 21.04 21.04s-9.42 21.039-21.04 21.039H304.52c-11.62 0-21.039-9.42-21.039-21.04 0-11.619 9.42-21.038 21.04-21.038zm0 16.205a4.835 4.835 0 000 9.67h16.895a4.835 4.835 0 100-9.67H304.52zm0-2.71h16.895a7.544 7.544 0 010 15.089H304.52a7.544 7.544 0 010-15.089z" fill="#FFF" fill-rule="nonzero"/><path d="M137.975 185.02h38.465a6.19 6.19 0 000-12.379h-38.465a6.19 6.19 0 000 12.38z" stroke="#FFF" stroke-width="2.71"/><path d="M137.975 183.665h38.465a4.835 4.835 0 100-9.669h-38.465a4.835 4.835 0 000 9.67z" fill="#026090"/><path d="M199.976 186.375a7.544 7.544 0 010-15.088h38.465a7.544 7.544 0 110 15.088h-38.465z" fill="#FFF" fill-rule="nonzero"/><path d="M199.976 183.665h38.465a4.835 4.835 0 100-9.669h-38.465a4.835 4.835 0 000 9.67z" fill="#026090"/><path d="M199.976 183.665h38.465a4.835 4.835 0 100-9.669h-38.465a4.835 4.835 0 000 9.67z"/><path d="M261.977 186.375a7.544 7.544 0 110-15.088h38.465a7.544 7.544 0 010 15.088h-38.465z" fill="#FFF" fill-rule="nonzero"/><path d="M261.977 183.665h38.465a4.835 4.835 0 000-9.669h-38.465a4.835 4.835 0 000 9.67z"/><path d="M261.977 183.665h38.465a4.835 4.835 0 000-9.669h-38.465a4.835 4.835 0 000 9.67z" fill="#026090"/><g><path d="M469.73 166.686h9.736c6.696 0 12.124 5.437 12.124 12.145 0 6.707-5.428 12.144-12.124 12.144h-9.737c-6.696 0-12.124-5.437-12.124-12.144 0-6.708 5.428-12.145 12.124-12.145zm0 7.79a4.351 4.351 0 00-4.348 4.355 4.351 4.351 0 004.347 4.355h9.737a4.351 4.351 0 004.347-4.355 4.351 4.351 0 00-4.347-4.355h-9.737z" fill="#026090"/><path d="M469.529 167.815c-6.074 0-10.998 4.932-10.998 11.016s4.924 11.016 10.998 11.016h10.137c6.074 0 10.998-4.932 10.998-11.016s-4.924-11.016-10.998-11.016h-10.137zm0-1.629h10.137c6.972 0 12.623 5.661 12.623 12.645 0 6.983-5.651 12.644-12.623 12.644h-10.137c-6.972 0-12.623-5.66-12.623-12.644s5.651-12.645 12.623-12.645zm0 9.74c-1.602 0-2.9 1.3-2.9 2.905a2.903 2.903 0 002.9 2.905h10.137c1.602 0 2.9-1.3 2.9-2.905a2.903 2.903 0 00-2.9-2.906h-10.137zm0-1.63h10.137a4.53 4.53 0 014.527 4.535 4.53 4.53 0 01-4.527 4.534h-10.137a4.53 4.53 0 01-4.527-4.534 4.53 4.53 0 014.527-4.534z" fill="#FFF" fill-rule="nonzero"/><path d="M432.574 167.038h9.454c6.502 0 11.773 5.28 11.773 11.793 0 6.513-5.27 11.793-11.773 11.793h-9.454c-6.502 0-11.773-5.28-11.773-11.793 0-6.513 5.271-11.793 11.773-11.793zm0 7.564a4.225 4.225 0 00-4.221 4.229 4.225 4.225 0 004.221 4.228h9.454a4.225 4.225 0 004.222-4.228 4.225 4.225 0 00-4.222-4.229h-9.454z" fill="#026090"/><path d="M432.233 167.815c-6.074 0-10.998 4.932-10.998 11.016s4.924 11.016 10.998 11.016h10.137c6.074 0 10.997-4.932 10.997-11.016s-4.923-11.016-10.997-11.016h-10.137zm0-1.629h10.137c6.971 0 12.623 5.661 12.623 12.645 0 6.983-5.652 12.644-12.623 12.644h-10.137c-6.972 0-12.624-5.66-12.624-12.644s5.652-12.645 12.624-12.645zm0 9.74c-1.602 0-2.901 1.3-2.901 2.905a2.903 2.903 0 002.9 2.905h10.138c1.602 0 2.9-1.3 2.9-2.905a2.903 2.903 0 00-2.9-2.906h-10.137zm0-1.63h10.137a4.53 4.53 0 014.526 4.535 4.53 4.53 0 01-4.526 4.534h-10.137a4.53 4.53 0 01-4.527-4.534 4.53 4.53 0 014.527-4.534z" fill="#FFF" fill-rule="nonzero"/><path d="M444.505 183.365a4.53 4.53 0 01-4.526-4.534 4.53 4.53 0 014.526-4.534h23.08a4.53 4.53 0 014.526 4.534 4.53 4.53 0 01-4.526 4.534h-23.08z" fill="#FFF" fill-rule="nonzero"/><g transform="translate(419.61 166.186)"><use fill="#026090" xlink:href="#a"/><path stroke="#FFF" stroke-width="1.626" d="M24.896 16.363h23.08a3.716 3.716 0 003.713-3.718 3.716 3.716 0 00-3.714-3.719H24.896a3.716 3.716 0 00-3.714 3.719 3.716 3.716 0 003.714 3.718z"/></g></g><g fill-rule="nonzero"><path d="M381.463 171.818v-12.38c0-2.923 3.486-4.442 5.627-2.45l24.44 22.74a3.347 3.347 0 010 4.9l-24.44 22.74c-2.14 1.991-5.627.473-5.627-2.451v-12.38h-29.167a3.347 3.347 0 01-3.348-3.346v-14.026a3.347 3.347 0 013.348-3.347h29.167z"/><g stroke-linecap="square" stroke-linejoin="round" transform="translate(348.948 156.039)"><use fill="#4393BB" fill-rule="evenodd" xlink:href="#b"/><path stroke="#FFF" stroke-width="1.806" d="M34.611 14.823H2.097v15.832H34.61v16.897l1.519-1.413L60.57 23.4l.71-.661-.71-.661L36.13-.662 34.61-2.073v16.897z"/></g></g></g></g></svg>